<?xml version="1.0" standalone="no"?>
<!DOCTYPE svg PUBLIC "-//W3C//DTD SVG 20010904//EN"
 "http://www.w3.org/TR/2001/REC-SVG-20010904/DTD/svg10.dtd">
<svg version="1.0" xmlns="http://www.w3.org/2000/svg"
 width="1280.000000pt" height="1280.000000pt" viewBox="0 0 1280.000000 1280.000000"
 preserveAspectRatio="xMidYMid meet">
<metadata>
Created by potrace 1.15, written by Peter Selinger 2001-2017
</metadata>
<g transform="translate(0.000000,1280.000000) scale(0.100000,-0.100000)"
fill="#f44336" stroke="none">
<path d="M1332 12304 c-152 -75 -174 -284 -42 -396 l40 -35 -2 -2018 -3 -2019
-70 -13 c-207 -38 -353 -188 -330 -341 10 -65 66 -122 121 -122 23 0 54 10 75
23 121 73 148 87 187 93 52 8 119 -15 167 -57 38 -34 97 -142 118 -219 108
-391 44 -827 -189 -1292 -25 -50 -47 -88 -49 -86 -2 2 1 48 7 102 30 262 -54
489 -237 639 -92 76 -303 174 -325 151 -15 -17 -69 -189 -84 -273 -29 -151
-17 -311 35 -471 12 -36 54 -135 94 -220 41 -85 81 -183 90 -218 31 -122 17
-297 -32 -408 l-17 -39 -7 105 c-16 234 -128 424 -333 562 -23 16 -43 28 -46
28 -3 0 -5 -46 -6 -103 0 -78 -8 -133 -31 -232 -72 -302 -95 -503 -74 -658 7
-49 32 -167 56 -263 93 -368 98 -573 25 -989 -48 -277 -65 -667 -39 -931 72
-750 379 -1327 846 -1595 100 -57 240 -113 364 -146 98 -26 115 -28 314 -27
201 0 214 1 310 29 119 34 131 35 260 10 142 -28 394 -27 525 2 236 51 424
174 508 331 33 61 62 164 62 220 l0 32 173 0 c585 0 1232 191 1907 562 96 53
238 131 315 173 468 258 854 419 1104 460 176 30 370 5 494 -63 66 -35 131
-111 157 -180 31 -83 26 -192 -13 -250 -38 -58 -91 -90 -173 -106 l-69 -12 67
-13 c146 -28 290 26 374 141 l36 48 2076 -1 2077 0 30 -42 c40 -54 84 -83 149
-98 44 -10 62 -9 110 5 178 52 237 276 106 403 -99 96 -235 97 -336 1 l-51
-48 -2069 0 c-1663 0 -2070 2 -2075 12 -4 7 -20 42 -35 78 -35 77 -124 172
-201 213 -28 15 -85 36 -125 46 -67 17 -70 20 -43 26 53 13 141 65 183 108 46
48 112 152 112 178 0 21 -127 65 -291 100 -137 30 -425 34 -534 7 -259 -64
-337 -116 -910 -612 -132 -115 -289 -245 -350 -291 -110 -82 -271 -182 -280
-173 -3 2 37 38 88 79 122 98 314 292 414 418 89 111 165 223 298 436 173 279
259 365 362 365 64 0 65 4 18 97 -67 134 -174 211 -305 221 l-67 4 34 57 c53
88 78 180 77 291 0 219 -65 345 -436 847 -303 412 -416 601 -459 774 -44 173
8 329 136 405 132 77 299 37 362 -86 13 -25 26 -73 29 -108 13 -120 67 -134
121 -30 22 44 27 66 27 133 1 68 -3 89 -27 137 -68 138 -234 218 -452 218
-118 0 -200 -18 -298 -64 -368 -171 -524 -604 -395 -1095 16 -64 32 -125 35
-136 4 -19 0 -20 -90 -17 -81 3 -313 -21 -326 -33 -2 -2 30 -37 71 -77 229
-224 405 -523 504 -852 26 -86 25 -107 -1 -55 -27 52 -106 129 -160 157 -59
30 -175 41 -242 23 -67 -18 -133 -70 -167 -131 -28 -50 -31 -63 -31 -140 0
-77 4 -92 37 -163 42 -87 113 -169 198 -227 127 -87 221 -217 257 -353 19 -74
21 -226 4 -317 -19 -98 -68 -244 -116 -345 -154 -322 -504 -604 -922 -741
-227 -75 -326 -89 -628 -89 -277 1 -355 9 -556 60 -539 136 -905 451 -1016
874 -32 122 -36 307 -10 416 44 176 161 337 267 369 92 27 106 17 40 -29 -117
-81 -193 -285 -175 -470 11 -118 25 -166 75 -270 124 -253 381 -438 705 -507
91 -19 313 -16 415 6 403 85 774 370 935 718 163 354 133 801 -77 1134 -240
381 -634 596 -1138 621 -282 13 -621 -54 -914 -183 -55 -24 -102 -42 -104 -39
-10 10 97 165 158 226 156 159 376 264 833 398 230 68 316 106 424 187 171
131 288 332 328 568 6 34 4 38 -11 32 -9 -4 -67 -20 -128 -36 -241 -64 -543
-110 -721 -110 -120 -1 -271 -16 -348 -35 -87 -23 -234 -94 -328 -160 -43 -30
-81 -55 -84 -55 -4 0 67 78 156 172 415 442 549 666 549 917 0 226 -119 383
-354 468 -42 15 -179 44 -184 39 -1 -2 7 -41 18 -87 27 -109 36 -300 21 -410
-23 -163 -92 -362 -201 -579 -28 -56 -121 -229 -207 -383 -276 -499 -418 -793
-550 -1142 -264 -696 -345 -1304 -253 -1880 40 -252 108 -463 219 -690 174
-352 414 -621 715 -801 l81 -49 -73 -3 c-145 -6 -356 49 -561 144 -434 203
-701 612 -795 1219 -31 201 -38 347 -33 651 4 238 9 327 26 437 41 260 130
572 246 862 86 215 157 365 435 925 337 679 450 939 520 1203 47 180 62 294
62 477 0 189 -20 313 -76 462 -47 124 -90 192 -183 287 l-83 84 0 2053 c0
1313 3 2054 10 2054 18 0 81 64 103 104 45 86 21 215 -51 284 -72 67 -188 82
-280 36z m1458 -8007 c420 -100 727 -353 820 -677 28 -96 38 -298 20 -408 -53
-335 -259 -614 -518 -704 -59 -20 -86 -23 -222 -23 -176 0 -248 14 -365 71
-161 78 -261 212 -285 383 -17 120 13 239 81 316 34 38 105 95 119 95 5 0 10
-38 11 -84 4 -95 21 -128 80 -159 47 -25 177 -19 235 11 163 84 164 287 1 438
-228 211 -575 189 -812 -52 -274 -279 -297 -758 -58 -1178 63 -109 123 -186
228 -291 238 -238 552 -397 994 -504 78 -19 129 -37 138 -48 29 -37 43 -84 43
-151 0 -57 -5 -80 -30 -130 -117 -233 -458 -277 -891 -114 -58 22 -143 58
-191 81 -581 277 -978 977 -978 1725 0 357 90 679 257 915 184 260 485 452
783 501 41 6 82 13 90 15 8 2 89 2 180 0 131 -3 186 -9 270 -28z"/>
</g>
</svg>
